<svg xmlns="http://www.w3.org/2000/svg" x="0px" y="0px" width="50" height="50" viewBox="26 20 170 170" style=" fill:#000000;"><g fill="none" fill-rule="nonzero" stroke="none" stroke-width="1" stroke-linecap="butt" stroke-linejoin="miter" stroke-miterlimit="10" stroke-dasharray="" stroke-dashoffset="0" font-family="none" font-weight="none" font-size="none" text-anchor="none" style="mix-blend-mode: normal"><path d="M0,226v-226h226v226z" fill="none"></path><g><path d="M84.19128,220.01728c39.53744,-17.94817 75.9925,-9.78706 95.04556,-18.43156c19.05306,-8.65078 54.09561,-37.76711 14.31333,-125.41744c-39.78228,-87.65033 -99.44628,-76.09294 -120.40778,-66.57583c-98.13422,44.53456 -58.97972,242.20294 11.04889,210.42483z" fill="#ffffff"></path><path d="M194.61111,47.08333c-5.19172,0 -9.41667,-4.22494 -9.41667,-9.41667c0,-5.19172 4.22494,-9.41667 9.41667,-9.41667c5.19172,0 9.41667,4.22494 9.41667,9.41667c0,5.19172 -4.22494,9.41667 -9.41667,9.41667zM194.61111,34.52778c-1.72639,0 -3.13889,1.40622 -3.13889,3.13889c0,1.73267 1.4125,3.13889 3.13889,3.13889c1.72639,0 3.13889,-1.40622 3.13889,-3.13889c0,-1.73267 -1.4125,-3.13889 -3.13889,-3.13889z" fill="#ffffff"></path><rect x="-2.29896" y="43.96318" transform="rotate(-45.001) scale(6.27778,6.27778)" width="1" height="2.001" fill="#ffffff"></rect><rect x="-2.29886" y="38.21399" transform="rotate(-45.001) scale(6.27778,6.27778)" width="1" height="2" fill="#ffffff"></rect><rect x="0.20034" y="41.7143" transform="rotate(-45.001) scale(6.27778,6.27778)" width="2" height="1" fill="#ffffff"></rect><rect x="-5.54885" y="41.7142" transform="rotate(-45.001) scale(6.27778,6.27778)" width="2" height="1" fill="#ffffff"></rect><g><path d="M113,49.48772l-48.929,28.25v3.503v63.52483v3.503l48.929,28.25l48.65278,-28.08678v-3.66622v-63.52483v-3.66622z" fill="#ffffff"></path><circle cx="18" cy="9" transform="scale(6.27778,6.27778)" r="2.25" fill="#3498db"></circle><circle cx="18" cy="27" transform="scale(6.27778,6.27778)" r="2.25" fill="#3498db"></circle><circle cx="25.794" cy="13.5" transform="scale(6.27778,6.27778)" r="2.25" fill="#3498db"></circle><circle cx="10.206" cy="22.5" transform="scale(6.27778,6.27778)" r="2.25" fill="#3498db"></circle><circle cx="25.794" cy="22.5" transform="scale(6.27778,6.27778)" r="2.25" fill="#3498db"></circle><circle cx="10.206" cy="13.5" transform="scale(6.27778,6.27778)" r="2.25" fill="#3498db"></circle></g><g><path d="M113,56.5c0,-5.21683 2.85639,-9.718 7.0625,-12.16633c-2.08422,-1.21161 -4.47606,-1.95867 -7.0625,-1.95867c-7.80328,0 -14.125,6.32172 -14.125,14.125c0,7.80328 6.32172,14.125 14.125,14.125c2.58644,0 4.97828,-0.74706 7.0625,-1.95867c-4.20611,-2.44833 -7.0625,-6.9495 -7.0625,-12.16633z" fill="#3498db"></path><path d="M113,169.5c0,-5.21683 2.85639,-9.718 7.0625,-12.16633c-2.08422,-1.21161 -4.47606,-1.95867 -7.0625,-1.95867c-7.80328,0 -14.125,6.32172 -14.125,14.125c0,7.80328 6.32172,14.125 14.125,14.125c2.58644,0 4.97828,-0.74706 7.0625,-1.95867c-4.20611,-2.44833 -7.0625,-6.9495 -7.0625,-12.16633z" fill="#3498db"></path><path d="M163.82489,91.8125c-3.88594,-6.73606 -1.59456,-15.33661 5.11639,-19.25394c-4.21867,-2.42322 -9.55478,-2.64922 -14.07478,-0.03767c-6.75489,3.8985 -9.07139,12.53672 -5.16661,19.29161c3.90478,6.75489 12.53672,9.07139 19.29161,5.16661c0.01883,-0.01256 0.03139,-0.02511 0.05022,-0.03767c-2.08422,-1.19906 -3.92361,-2.89406 -5.21683,-5.12894z" fill="#3498db"></path><path d="M65.96689,148.3125c-3.88594,-6.73606 -1.59456,-15.33661 5.11639,-19.25394c-4.21867,-2.42322 -9.55478,-2.64922 -14.07478,-0.03767c-6.75489,3.8985 -9.07139,12.53672 -5.16661,19.29161c3.90478,6.75489 12.53672,9.07139 19.29161,5.16661c0.01883,-0.01256 0.03139,-0.02511 0.05022,-0.03767c-2.0905,-1.19906 -3.92989,-2.89406 -5.21683,-5.12894z" fill="#3498db"></path><path d="M163.82489,134.1875c1.29322,-2.23489 3.13261,-3.92989 5.21683,-5.12894c-0.01883,-0.01256 -0.03139,-0.02511 -0.05022,-0.03767c-6.75489,-3.8985 -15.39311,-1.58828 -19.29161,5.16661c-3.8985,6.75489 -1.58828,15.39311 5.16661,19.29161c4.52,2.61156 9.84983,2.38556 14.07478,-0.03767c-6.71094,-3.91733 -9.00233,-12.51789 -5.11639,-19.25394z" fill="#3498db"></path><path d="M65.96689,77.6875c1.29322,-2.23489 3.13261,-3.92989 5.21683,-5.12894c-0.01883,-0.01256 -0.03139,-0.02511 -0.05022,-0.03767c-6.75489,-3.8985 -15.39311,-1.58828 -19.29161,5.16661c-3.8985,6.75489 -1.58828,15.39311 5.16661,19.29161c4.52,2.61156 9.84983,2.38556 14.07478,-0.03767c-6.71094,-3.91733 -9.00861,-12.51789 -5.11639,-19.25394z" fill="#3498db"></path><path d="M72.00611,152.85133l26.97561,15.57517c0.19461,-2.51111 0.97306,-4.85272 2.30394,-6.82394l-23.09594,-13.334v-3.503v-63.52483v-3.503l23.09594,-13.334c-1.33089,-1.97122 -2.11561,-4.31283 -2.31022,-6.82394l-26.97561,15.57517c6.03294,4.13078 8.00417,12.22283 4.28772,18.65756c-2.61156,4.52628 -7.35756,6.99972 -12.22911,6.99972v28.36928c4.87783,0.00628 9.61756,2.47972 12.22911,6.99972c3.729,6.44728 1.7515,14.53933 -4.28144,18.67011z" fill="#ffffff"></path></g><g fill="#000000"><rect x="17.25" y="11.5" transform="scale(6.27778,6.27778)" width="1.5" height="13"></rect><path d="M113,75.33333c-10.38344,0 -18.83333,-8.44989 -18.83333,-18.83333c0,-10.38344 8.44989,-18.83333 18.83333,-18.83333c10.38344,0 18.83333,8.44989 18.83333,18.83333c0,10.38344 -8.44989,18.83333 -18.83333,18.83333zM113,47.08333c-5.19172,0 -9.41667,4.22494 -9.41667,9.41667c0,5.19172 4.22494,9.41667 9.41667,9.41667c5.19172,0 9.41667,-4.22494 9.41667,-9.41667c0,-5.19172 -4.22494,-9.41667 -9.41667,-9.41667z"></path><path d="M113,188.33333c-10.38344,0 -18.83333,-8.44989 -18.83333,-18.83333c0,-10.38344 8.44989,-18.83333 18.83333,-18.83333c10.38344,0 18.83333,8.44989 18.83333,18.83333c0,10.38344 -8.44989,18.83333 -18.83333,18.83333zM113,160.08333c-5.19172,0 -9.41667,4.22494 -9.41667,9.41667c0,5.19172 4.22494,9.41667 9.41667,9.41667c5.19172,0 9.41667,-4.22494 9.41667,-9.41667c0,-5.19172 -4.22494,-9.41667 -9.41667,-9.41667z"></path><rect x="0.08565" y="23.83828" transform="rotate(-30.006) scale(6.27778,6.27778)" width="13.001" height="1.5"></rect><path d="M161.96039,103.57706c-6.51006,0 -12.85689,-3.37744 -16.34106,-9.41039c-5.19172,-8.99606 -2.09678,-20.53461 6.893,-25.72633c8.9835,-5.17917 20.53461,-2.09678 25.72633,6.893c2.51111,4.35678 3.18283,9.42922 1.88333,14.28822c-1.2995,4.859 -4.41328,8.92072 -8.77006,11.43183c-2.96939,1.71383 -6.19617,2.52367 -9.39156,2.52367zM161.91017,75.33333c-1.59456,0 -3.21422,0.40806 -4.6895,1.26183c-4.49489,2.599 -6.03922,8.36828 -3.4465,12.86317c2.58644,4.48861 8.362,6.03294 12.86317,3.4465c2.17839,-1.25556 3.73528,-3.28328 4.38189,-5.71906c0.65289,-2.4295 0.32017,-4.96572 -0.93539,-7.14411c-1.74522,-3.01333 -4.90922,-4.70833 -8.17367,-4.70833z"></path><path d="M64.10239,160.08961c-1.6385,0 -3.277,-0.21344 -4.90294,-0.65289c-4.86528,-1.2995 -8.92072,-4.41328 -11.43811,-8.77006c-2.51739,-4.35678 -3.18283,-9.42922 -1.88333,-14.28822c1.2995,-4.859 4.41328,-8.92072 8.77006,-11.43183c4.36306,-2.51111 9.42922,-3.18911 14.28822,-1.88333c4.859,1.2995 8.92072,4.41328 11.43183,8.77006c5.19172,8.99606 2.09678,20.53461 -6.893,25.72633v0c-2.89406,1.66989 -6.11456,2.52994 -9.37272,2.52994zM64.05844,131.83333c-1.6385,0 -3.24561,0.42061 -4.69578,1.26183c-2.17839,1.25556 -3.73528,3.28328 -4.38189,5.71278c-0.65289,2.43578 -0.32017,4.972 0.93539,7.15039c1.25556,2.17839 3.28328,3.73528 5.71278,4.38189c2.44206,0.65289 4.96572,0.32017 7.15039,-0.93539c4.49489,-2.599 6.03922,-8.36828 3.4465,-12.86317c-1.25556,-2.17839 -3.28328,-3.73528 -5.71278,-4.38189c-0.81611,-0.21972 -1.6385,-0.32644 -2.45461,-0.32644z"></path><rect x="-7.33845" y="18.08773" transform="rotate(-60.002) scale(6.27778,6.27778)" width="1.5" height="13.001"></rect><path d="M161.89761,160.08961c-3.26444,0 -6.47867,-0.86006 -9.38528,-2.52994v0c-8.98978,-5.19172 -12.08472,-16.73028 -6.893,-25.72633c2.51111,-4.35678 6.57283,-7.47056 11.43183,-8.77006c4.859,-1.30578 9.92517,-0.63406 14.28822,1.88333c4.35678,2.51111 7.47056,6.57283 8.77006,11.43183c1.2995,4.859 0.63406,9.93144 -1.88333,14.28822c-2.51739,4.35678 -6.57283,7.47056 -11.43183,8.77006c-1.61339,0.43944 -3.25817,0.65289 -4.89667,0.65289zM157.22067,149.40483c2.17839,1.25556 4.69578,1.59456 7.15039,0.93539c2.4295,-0.65289 4.45722,-2.20978 5.71278,-4.38189c1.25556,-2.17211 1.59456,-4.71461 0.93539,-7.15039c-0.65289,-2.4295 -2.20978,-4.45722 -4.38189,-5.71278c-2.18467,-1.24928 -4.70206,-1.60083 -7.15039,-0.93539c-2.4295,0.65289 -4.45722,2.20978 -5.71278,4.38189c-2.59272,4.49489 -1.04839,10.26417 3.4465,12.86317z"></path><path d="M64.03961,103.57706c-3.19539,0 -6.42217,-0.80983 -9.38528,-2.51739c-4.35678,-2.51111 -7.47056,-6.57283 -8.77006,-11.43183c-1.2995,-4.859 -0.63406,-9.93772 1.87706,-14.2945c5.19172,-8.98978 16.73028,-12.07217 25.72633,-6.893c8.98978,5.19172 12.08472,16.73028 6.893,25.72633c-3.48417,6.03294 -9.831,9.41039 -16.34106,9.41039zM64.08983,75.33333c-3.26444,0 -6.42844,1.68872 -8.17367,4.70833c-1.25556,2.17839 -1.59456,4.71461 -0.93539,7.14411c0.65289,2.4295 2.20978,4.45722 4.38189,5.71906c4.49489,2.59272 10.27044,1.04839 12.86317,-3.4465c2.59272,-4.49489 1.04839,-10.26417 -3.4465,-12.86317c-1.47528,-0.85378 -3.09494,-1.26183 -4.6895,-1.26183z"></path><rect x="1.42308" y="22.32515" transform="rotate(-60) scale(6.27778,6.27778)" width="1.5" height="4.524"></rect><rect x="4.32379" y="32.60118" transform="rotate(-30.006) scale(6.27778,6.27778)" width="4.524" height="1.5"></rect><rect x="25" y="16.063" transform="scale(6.27778,6.27778)" width="1.5" height="3.875"></rect><rect x="4.32488" y="15.07675" transform="rotate(-30.006) scale(6.27778,6.27778)" width="4.524" height="1.5"></rect><rect x="-16.10286" y="22.32466" transform="rotate(-60.007) scale(6.27778,6.27778)" width="1.5" height="4.524"></rect><rect x="9.5" y="16.063" transform="scale(6.27778,6.27778)" width="1.5" height="3.875"></rect></g></g></g></svg>
