<svg xmlns="http://www.w3.org/2000/svg" x="0px" y="0px" width="50" height="50" viewBox="0 0 226 226" style=" fill:#000000;"><g fill="none" fill-rule="nonzero" stroke="none" stroke-width="1" stroke-linecap="butt" stroke-linejoin="miter" stroke-miterlimit="10" stroke-dasharray="" stroke-dashoffset="0" font-family="none" font-weight="none" font-size="none" text-anchor="none" style="mix-blend-mode: normal"><path d="M0,226v-226h226v226z" fill="none"></path><g fill="#3498db"><path d="M224.23438,30.01563c0,-15.57281 -12.67719,-28.25 -28.25,-28.25c-13.77187,0 -25.24844,9.90516 -27.73797,22.95313h-27.50844c-2.48953,-13.04797 -13.96609,-22.95312 -27.73797,-22.95312c-13.77187,0 -25.24844,9.90516 -27.73797,22.95313h-27.50844c-2.48953,-13.04797 -13.96609,-22.95312 -27.73797,-22.95312c-15.57281,0 -28.25,12.67719 -28.25,28.25c0,13.77188 9.90516,25.24844 22.95313,27.73797v27.50844c-13.04797,2.48953 -22.95312,13.96609 -22.95312,27.73797c0,13.77187 9.90516,25.24844 22.95313,27.73797v27.50844c-13.04797,2.48953 -22.95312,13.96609 -22.95312,27.73797c0,15.57281 12.67719,28.25 28.25,28.25c13.77188,0 25.24844,-9.90516 27.73797,-22.95312h27.50844c2.48953,13.04797 13.96609,22.95313 27.73797,22.95313c13.77187,0 25.24844,-9.90516 27.73797,-22.95312h27.50844c2.48953,13.04797 13.96609,22.95313 27.73797,22.95313c15.57281,0 28.25,-12.67719 28.25,-28.25c0,-13.77187 -9.90516,-25.24844 -22.95312,-27.73797v-27.50844c13.04797,-2.48953 22.95313,-13.96609 22.95313,-27.73797c0,-13.77188 -9.90516,-25.24844 -22.95312,-27.73797v-27.50844c13.04797,-2.48953 22.95313,-13.96609 22.95313,-27.73797zM140.73797,35.3125h27.50844c2.15406,11.33531 11.10578,20.26938 22.44109,22.44109v27.50844c-11.33531,2.15406 -20.26937,11.10578 -22.44109,22.44109h-27.50844c-2.17172,-11.33531 -11.10578,-20.26937 -22.44109,-22.44109v-27.50844c11.33531,-2.17172 20.26937,-11.10578 22.44109,-22.44109zM130.65625,113c0,9.72859 -7.92766,17.65625 -17.65625,17.65625c-9.72859,0 -17.65625,-7.92766 -17.65625,-17.65625c0,-9.72859 7.92766,-17.65625 17.65625,-17.65625c9.72859,0 17.65625,7.92766 17.65625,17.65625zM113,12.35938c9.72859,0 17.65625,7.92766 17.65625,17.65625c0,9.72859 -7.92766,17.65625 -17.65625,17.65625c-9.72859,0 -17.65625,-7.92766 -17.65625,-17.65625c0,-9.72859 7.92766,-17.65625 17.65625,-17.65625zM57.75359,35.3125h27.50844c2.15406,11.33531 11.10578,20.26938 22.44109,22.44109v27.50844c-11.33531,2.17172 -20.26937,11.10578 -22.44109,22.44109h-27.50844c-2.17172,-11.33531 -11.10578,-20.26937 -22.44109,-22.44109v-27.50844c11.33531,-2.17172 20.26938,-11.10578 22.44109,-22.44109zM12.35938,30.01563c0,-9.72859 7.92766,-17.65625 17.65625,-17.65625c9.72859,0 17.65625,7.92766 17.65625,17.65625c0,9.72859 -7.92766,17.65625 -17.65625,17.65625c-9.72859,0 -17.65625,-7.92766 -17.65625,-17.65625zM12.35938,113c0,-9.72859 7.92766,-17.65625 17.65625,-17.65625c9.72859,0 17.65625,7.92766 17.65625,17.65625c0,9.72859 -7.92766,17.65625 -17.65625,17.65625c-9.72859,0 -17.65625,-7.92766 -17.65625,-17.65625zM30.01563,213.64063c-9.72859,0 -17.65625,-7.92766 -17.65625,-17.65625c0,-9.72859 7.92766,-17.65625 17.65625,-17.65625c9.72859,0 17.65625,7.92766 17.65625,17.65625c0,9.72859 -7.92766,17.65625 -17.65625,17.65625zM85.26203,190.6875h-27.50844c-2.15406,-11.33531 -11.10578,-20.26937 -22.44109,-22.44109v-27.50844c11.33531,-2.15406 20.26938,-11.10578 22.44109,-22.44109h27.50844c2.15406,11.33531 11.10578,20.26937 22.44109,22.44109v27.50844c-11.33531,2.17172 -20.26937,11.10578 -22.44109,22.44109zM113,213.64063c-9.72859,0 -17.65625,-7.92766 -17.65625,-17.65625c0,-9.72859 7.92766,-17.65625 17.65625,-17.65625c9.72859,0 17.65625,7.92766 17.65625,17.65625c0,9.72859 -7.92766,17.65625 -17.65625,17.65625zM168.24641,190.6875h-27.50844c-2.15406,-11.33531 -11.10578,-20.26937 -22.44109,-22.44109v-27.50844c11.33531,-2.15406 20.26937,-11.10578 22.44109,-22.44109h27.50844c2.15406,11.33531 11.10578,20.26937 22.44109,22.44109v27.50844c-11.33531,2.17172 -20.26937,11.10578 -22.44109,22.44109zM213.64063,195.98438c0,9.72859 -7.92766,17.65625 -17.65625,17.65625c-9.72859,0 -17.65625,-7.92766 -17.65625,-17.65625c0,-9.72859 7.92766,-17.65625 17.65625,-17.65625c9.72859,0 17.65625,7.92766 17.65625,17.65625zM213.64063,113c0,9.72859 -7.92766,17.65625 -17.65625,17.65625c-9.72859,0 -17.65625,-7.92766 -17.65625,-17.65625c0,-9.72859 7.92766,-17.65625 17.65625,-17.65625c9.72859,0 17.65625,7.92766 17.65625,17.65625zM195.98438,47.67188c-9.72859,0 -17.65625,-7.92766 -17.65625,-17.65625c0,-9.72859 7.92766,-17.65625 17.65625,-17.65625c9.72859,0 17.65625,7.92766 17.65625,17.65625c0,9.72859 -7.92766,17.65625 -17.65625,17.65625z"></path></g></g></svg>
