<svg xmlns="http://www.w3.org/2000/svg" x="0px" y="0px" width="50" height="50" viewBox="0 0 226 226" style=" fill:#000000;"><g fill="none" fill-rule="nonzero" stroke="none" stroke-width="1" stroke-linecap="butt" stroke-linejoin="miter" stroke-miterlimit="10" stroke-dasharray="" stroke-dashoffset="0" font-family="none" font-weight="none" font-size="none" text-anchor="none" style="mix-blend-mode: normal"><path d="M0,226v-226h226v226z" fill="none"></path><g fill="#3498db"><path d="M113,22.58529c-2.81747,0 -5.62375,0.54158 -8.31315,1.60378l-63.44479,24.95417c-4.5652,1.79293 -4.65242,8.22416 -0.13242,10.13763l67.44687,28.58841c1.4238,0.60267 2.92929,0.89753 4.44349,0.89753c1.5142,0 3.02722,-0.29486 4.44349,-0.89753l67.44687,-28.58841c4.52,-1.91347 4.43278,-8.3447 -0.13242,-10.13763l-63.44479,-24.95417c-2.6894,-1.0622 -5.49569,-1.60378 -8.31315,-1.60378zM113,45.2c8.32433,0 15.06667,3.37493 15.06667,7.53333c0,4.1584 -6.74233,7.53333 -15.06667,7.53333c-8.32433,0 -15.06667,-3.37493 -15.06667,-7.53333c0,-4.1584 6.74233,-7.53333 15.06667,-7.53333zM29.26523,71.64023c-3.60188,0.38561 -6.66523,3.41542 -6.66523,7.41563v75.68646c0,8.64827 4.82828,16.41137 12.58008,20.24583c0,0 34.88075,17.16917 55.49948,27.2789c6.84027,3.35233 14.78711,-1.64615 14.78711,-9.25481v-79.61498c0,-6.3506 -3.7915,-12.08793 -9.63737,-14.5664l-62.88568,-26.63151c-1.22793,-0.5198 -2.47776,-0.68765 -3.67839,-0.55911zM196.73476,71.64023c-1.20063,-0.12854 -2.45045,0.03931 -3.67838,0.55911l-62.88568,26.63151c-5.84587,2.47847 -9.63737,8.2158 -9.63737,14.5664v79.61498c0,7.6162 7.94685,12.61433 14.78711,9.26953c20.61873,-10.10973 55.49948,-27.2789 55.49948,-27.2789c7.7518,-3.842 12.58008,-11.61228 12.58008,-20.26055v-75.68646c0,-4.0002 -3.06336,-7.03002 -6.66524,-7.41563zM43.68451,92.56289c0.49026,0.00387 0.99569,0.08628 1.51549,0.25013c4.1584,1.30327 7.53333,7.42375 7.53333,13.66889c0,6.24513 -3.37493,10.24191 -7.53333,8.93111c-4.1584,-1.30327 -7.53333,-7.42375 -7.53333,-13.66888c0,-5.46449 2.58605,-9.20833 6.01784,-9.18125zM182.3155,95.27018c3.43179,-0.02575 6.01784,3.72335 6.01784,9.18125c0,6.2376 -3.37493,12.36561 -7.53333,13.66889c-4.1584,1.30327 -7.53333,-2.69352 -7.53333,-8.93112c0,-6.2376 3.37493,-12.35809 7.53333,-13.66888c0.5198,-0.16386 1.02524,-0.24645 1.5155,-0.25014zM152.18216,107.62955c3.43179,-0.02575 6.01784,3.72335 6.01784,9.18125c0,6.2376 -3.37493,12.36561 -7.53333,13.66888c-4.1584,1.30327 -7.53333,-2.69351 -7.53333,-8.93111c0,-6.2376 3.37493,-12.35809 7.53333,-13.66889c0.5198,-0.16385 1.02524,-0.24645 1.5155,-0.25013zM182.3155,137.76289c3.43179,-0.02575 6.01784,3.72335 6.01784,9.18125c0,6.2376 -3.37493,12.36561 -7.53333,13.66888c-4.1584,1.30327 -7.53333,-2.69351 -7.53333,-8.93111c0,-6.2376 3.37493,-12.35809 7.53333,-13.66889c0.5198,-0.16385 1.02524,-0.24645 1.5155,-0.25013zM73.81784,152.82955c0.49026,0.00387 0.99569,0.08628 1.51549,0.25013c4.1584,1.30327 7.53333,7.42375 7.53333,13.66889c0,6.24513 -3.37493,10.24191 -7.53333,8.93111c-4.1584,-1.30326 -7.53333,-7.42375 -7.53333,-13.66888c0,-5.46449 2.58605,-9.20833 6.01784,-9.18125zM152.18216,152.82955c3.43179,-0.02575 6.01784,3.72335 6.01784,9.18125c0,6.2376 -3.37493,12.36561 -7.53333,13.66888c-4.1584,1.30327 -7.53333,-2.69351 -7.53333,-8.93111c0,-6.2376 3.37493,-12.35808 7.53333,-13.66889c0.5198,-0.16385 1.02524,-0.24645 1.5155,-0.25013z"></path></g></g></svg>
