<svg xmlns="http://www.w3.org/2000/svg" x="0px" y="0px" width="50" height="50" viewBox="0 0 226 226" style=" fill:#000000;"><g fill="none" fill-rule="nonzero" stroke="none" stroke-width="1" stroke-linecap="butt" stroke-linejoin="miter" stroke-miterlimit="10" stroke-dasharray="" stroke-dashoffset="0" font-family="none" font-weight="none" font-size="none" text-anchor="none" style="mix-blend-mode: normal"><path d="M0,226v-226h226v226z" fill="none"></path><g fill="#3498db"><path d="M113,22.6c-48.13094,0 -87.53969,37.87266 -90.15281,85.38562c-0.21187,3.24875 1.32422,6.35625 4.04328,8.15719c2.71906,1.78328 6.19734,1.9775 9.09297,0.49438c2.89563,-1.48313 4.78484,-4.41406 4.90844,-7.66281c2.10109,-38.11984 33.42328,-68.29437 72.10812,-68.29437c20.72844,0 39.32047,8.70453 52.47437,22.6h-11.79438c-3.26641,-0.05297 -6.28562,1.65969 -7.92766,4.48469c-1.65969,2.80734 -1.65969,6.30328 0,9.11062c1.64203,2.825 4.66125,4.53766 7.92766,4.48469h28.30297c1.02406,0.17656 2.06578,0.17656 3.1075,0h13.78953v-45.2c0.03531,-2.43656 -0.91813,-4.78484 -2.64844,-6.51516c-1.73031,-1.73031 -4.07859,-2.68375 -6.53281,-2.64844c-4.97906,0.07062 -8.96938,4.16688 -8.89875,9.16359v17.07359c-16.57922,-18.78625 -40.83891,-30.63359 -67.8,-30.63359zM194.50125,108.35641c-4.99672,-0.21187 -9.19891,3.6725 -9.39312,8.66922c-2.10109,38.11984 -33.42328,68.29438 -72.10812,68.29438c-20.72844,0 -39.30281,-8.70453 -52.47437,-22.6h11.79438c3.26641,0.05297 6.28562,-1.65969 7.92766,-4.48469c1.65969,-2.80734 1.65969,-6.30328 0,-9.11062c-1.64203,-2.825 -4.66125,-4.53766 -7.92766,-4.48469h-28.39125c-0.95344,-0.14125 -1.90687,-0.14125 -2.86031,0h-13.94844v45.2c-0.05297,3.26641 1.65969,6.28563 4.48469,7.92766c2.80734,1.65969 6.30328,1.65969 9.11063,0c2.825,-1.64203 4.53766,-4.66125 4.48469,-7.92766v-17.07359c16.57922,18.78625 40.83891,30.63359 67.8,30.63359c48.13094,0 87.53969,-37.87266 90.15281,-85.38562c0.17656,-2.43656 -0.65328,-4.83781 -2.27766,-6.65641c-1.64203,-1.81859 -3.93734,-2.89562 -6.37391,-3.00156z"></path></g></g></svg>