<svg xmlns="http://www.w3.org/2000/svg" x="0px" y="0px" width="50" height="50" viewBox="0 0 226 226" style=" fill:#000000;"><g fill="none" fill-rule="nonzero" stroke="none" stroke-width="1" stroke-linecap="butt" stroke-linejoin="miter" stroke-miterlimit="10" stroke-dasharray="" stroke-dashoffset="0" font-family="none" font-weight="none" font-size="none" text-anchor="none" style="mix-blend-mode: normal"><path d="M0,226v-226h226v226z" fill="none"></path><g><path d="M207.49719,58.38333c4.15746,7.20846 1.69029,16.41796 -5.51346,20.58013c-7.20846,4.15746 -16.41796,1.69029 -20.58012,-5.51346c-4.15746,-7.20846 -1.69029,-16.41796 5.51346,-20.58013c7.20846,-4.15746 16.41796,-1.69029 20.58012,5.51346z" fill="#3498db"></path><path d="M201.98373,147.03654c7.20375,4.16217 9.67092,13.37167 5.51346,20.58013c-4.16217,7.20375 -13.37167,9.67092 -20.58012,5.51346c-7.20375,-4.16217 -9.67092,-13.37167 -5.51346,-20.58012c4.16217,-7.20375 13.37167,-9.67092 20.58012,-5.51346z" fill="#3498db"></path><circle cx="239.992" cy="40" transform="scale(0.47083,0.47083)" r="32" fill="#3498db"></circle><circle cx="239.992" cy="440" transform="scale(0.47083,0.47083)" r="32" fill="#3498db"></circle><path d="M39.0754,52.86988c7.20375,4.16217 9.67092,13.37167 5.51346,20.58013c-4.16217,7.20375 -13.37167,9.67092 -20.58013,5.51346c-7.20375,-4.16217 -9.67092,-13.37167 -5.51346,-20.58013c4.16217,-7.20375 13.37167,-9.67092 20.58013,-5.51346z" fill="#3498db"></path><path d="M44.58886,152.55c4.15746,7.20846 1.69029,16.41796 -5.51346,20.58012c-7.20846,4.15746 -16.41796,1.69029 -20.58012,-5.51346c-4.15746,-7.20846 -1.69029,-16.41796 5.51346,-20.58013c7.20846,-4.15746 16.41796,-1.69029 20.58013,5.51346z" fill="#3498db"></path><path d="M195.46552,58.10648c-4.29682,2.94318 -6.90242,8.04748 -6.69902,13.25631c0.15914,4.07082 -5.21542,5.72345 -7.28756,2.21621c-5.60998,-9.4953 0.58054,-21.50861 11.3824,-22.64708c4.07977,-0.4294 5.98853,4.85665 2.60418,7.17456z" fill="#3498db"></path><path d="M114.01135,10.96571c-4.29682,2.94318 -6.90242,8.04748 -6.69902,13.25631c0.15914,4.07083 -5.21542,5.72345 -7.28756,2.21621c-5.60998,-9.4953 0.58054,-21.50861 11.3824,-22.64708c4.0793,-0.42987 5.98853,4.85665 2.60418,7.17456z" fill="#3498db"></path><path d="M114.01135,199.29904c-4.29682,2.94318 -6.90242,8.04748 -6.69902,13.25631c0.15914,4.07083 -5.21542,5.72345 -7.28756,2.21621c-5.60998,-9.4953 0.58054,-21.50861 11.3824,-22.64708c4.0793,-0.42987 5.98853,4.85665 2.60418,7.17456z" fill="#3498db"></path><path d="M32.55718,58.10648c-4.29683,2.94318 -6.90242,8.04748 -6.69902,13.25631c0.15914,4.07082 -5.21542,5.72345 -7.28756,2.21621c-5.60998,-9.4953 0.58054,-21.50861 11.3824,-22.64708c4.07977,-0.4294 5.98853,4.85665 2.60418,7.17456z" fill="#3498db"></path><path d="M195.46552,152.21618c-4.29682,2.94318 -6.90242,8.04748 -6.69902,13.25631c0.15914,4.07082 -5.21542,5.72345 -7.28756,2.21621c-5.60998,-9.49482 0.58054,-21.50861 11.3824,-22.64708c4.07977,-0.42987 5.98853,4.85665 2.60418,7.17456z" fill="#3498db"></path><path d="M32.55718,152.21618c-4.29683,2.94318 -6.90242,8.04748 -6.69902,13.25631c0.15914,4.07082 -5.21542,5.72345 -7.28756,2.21621c-5.60998,-9.49482 0.58054,-21.50861 11.3824,-22.64708c4.07977,-0.42987 5.98853,4.85665 2.60418,7.17456z" fill="#3498db"></path><path d="M198.21707,141.62902v-60.64569c0,-2.09474 -1.70347,-3.76667 -3.76337,-3.76667c-7.3643,-0.00659 -12.85234,-6.998 -10.91627,-14.22388c1.61543,-6.02949 7.80359,-9.60547 13.83685,-7.98863c6.03043,1.6159 9.605,7.805 7.98816,13.83638c-0.53863,2.00952 0.65399,4.07459 2.6635,4.61323c2.00952,0.53769 4.07506,-0.65399 4.61323,-2.6635c2.69364,-10.05182 -3.26146,-20.36919 -13.31517,-23.06283c-10.38517,-2.7831 -21.11122,3.67203 -23.32085,14.42257h-33.67965l-18.53859,-32.14803c-1.0396,-1.80188 -3.34245,-2.42055 -5.1448,-1.38142c-7.44858,4.29965 -16.94388,-1.05184 -16.94388,-9.78768c0,-6.23054 5.06946,-11.3 11.3,-11.3c5.80396,0 10.63518,4.34485 11.23785,10.10597c0.21611,2.06931 2.06884,3.57315 4.13815,3.35422c2.06884,-0.21611 3.5708,-2.06931 3.35422,-4.13815c-1.00523,-9.60877 -9.05742,-16.85489 -18.73022,-16.85489c-12.80243,0 -21.94978,12.5995 -17.8573,24.80491l-52.5111,30.35274c-1.97562,1.14224 -2.54203,3.82882 -0.9977,5.67637c3.73983,7.45188 -1.59613,16.34969 -10.06406,16.38218c-4.98048,0.01883 -9.57534,-3.29489 -10.93699,-8.37518c-1.6159,-6.0309 1.95678,-12.22048 7.98863,-13.83638c2.00952,-0.53863 3.20214,-2.60371 2.6635,-4.61322c-0.53863,-2.00952 -2.6023,-3.20072 -4.61322,-2.6635c-10.05276,2.69364 -16.00975,13.00865 -13.31564,23.06283c1.9243,7.18209 7.70613,12.20588 14.42257,13.58307c0,0.94402 -0.00141,60.3952 0.00235,60.69183c0.02637,2.05566 1.69783,3.71629 3.76055,3.71817c7.37937,0.00659 12.8481,7.01212 10.91627,14.22387c-1.61637,6.03185 -7.80453,9.60312 -13.83685,7.98863c-7.21646,-1.93371 -10.54525,-10.17753 -6.85675,-16.57145c1.0396,-1.80188 0.4214,-4.1052 -1.38048,-5.1448c-1.80188,-1.0396 -4.1052,-0.42187 -5.1448,1.38048c-6.13402,10.6333 -0.61114,24.3854 11.43278,27.61249c10.38941,2.78404 21.1117,-3.67532 23.32085,-14.42257h33.67965l16.8483,29.21662c-0.56877,0.50473 -1.10269,1.04337 -1.60319,1.60931l-37.8357,-21.87021c-1.80094,-1.04101 -4.1052,-0.42516 -5.14621,1.37625c-1.04101,1.80094 -0.42469,4.10473 1.37625,5.14621l37.83522,21.87021c-4.09248,12.18705 5.03321,24.80115 17.85306,24.80115c12.76476,0 21.95213,-12.54771 17.86012,-24.80632l52.43671,-30.31037c1.80612,-1.04431 2.42479,-3.3641 1.36118,-5.16928c-3.68568,-6.43111 -0.29474,-14.62314 6.87228,-16.5432c6.02996,-1.6159 12.22048,1.95584 13.83685,7.98863c1.6159,6.0309 -1.95678,12.22048 -7.98863,13.83638c-2.00952,0.53863 -3.20214,2.60371 -2.6635,4.61323c0.53487,1.99586 2.58958,3.20496 4.61323,2.6635c4.85853,-1.30185 8.91947,-4.41783 11.43419,-8.77351c6.43111,-11.13945 0.04473,-25.28846 -12.54159,-27.87004zM35.30873,141.6375v-57.27311c11.17193,-2.29437 17.63459,-13.7554 14.08827,-24.41789l49.51895,-28.62384c5.00684,5.63823 12.84198,7.76922 20.03443,5.37692l14.67682,25.45042h-68.76238c-2.08014,0 -3.76667,1.68652 -3.76667,3.76667c0,2.08014 1.68652,3.76667 3.76667,3.76667h73.10676l10.60882,18.39687l-74.93218,43.31337l-21.77745,-37.7646c-1.0396,-1.80235 -3.34245,-2.42055 -5.1448,-1.38142c-1.80188,1.03913 -2.42055,3.34245 -1.38142,5.1448l21.78122,37.77119l-21.50013,12.42812c-2.70117,-3.03829 -6.33177,-5.13397 -10.3169,-5.95416zM49.99638,156.31667c-0.15302,-0.74533 -0.34747,-1.48265 -0.59137,-2.20774l21.48507,-12.41917l8.43451,14.62691zM112.99623,218.46667c-6.23054,0 -11.3,-5.06899 -11.3,-11.3c0,-4.00962 2.15265,-7.7485 5.62034,-9.76979c1.83201,-1.02359 2.46058,-3.3528 1.41721,-5.16222l-16.36852,-28.38466h83.64448c0.15067,0.74345 0.34465,1.47936 0.58525,2.2035l-52.43953,30.31178c-1.77363,1.02877 -2.43233,3.32361 -1.37813,5.14715c4.32931,7.46883 -1.06361,16.95424 -9.78109,16.95424zM176.01021,156.31667h-87.98933l-10.60882,-18.39687l74.93218,-43.31337l22.70735,39.37673c0.6973,1.2091 1.96385,1.88569 3.26664,1.88569c2.85702,0 4.71916,-3.11739 3.25958,-5.64906l-22.71112,-39.38333l11.40405,-6.59167c1.80094,-1.04101 2.41726,-3.3448 1.37625,-5.14621c-1.04148,-1.80141 -3.34574,-2.41726 -5.14621,-1.37625l-11.39746,6.5879l-8.43545,-14.62691h29.32821c1.51608,7.39114 7.29085,13.1565 14.68765,14.67917v57.27358c-7.63127,1.5674 -13.2097,7.46365 -14.67352,14.68058z" fill="#000000"></path></g></g></svg>
