<svg xmlns="http://www.w3.org/2000/svg" x="0px" y="0px" width="50" height="50" viewBox="0 0 226 226" style=" fill:#000000;"><g fill="none" fill-rule="nonzero" stroke="none" stroke-width="1" stroke-linecap="butt" stroke-linejoin="miter" stroke-miterlimit="10" stroke-dasharray="" stroke-dashoffset="0" font-family="none" font-weight="none" font-size="none" text-anchor="none" style="mix-blend-mode: normal"><path d="M0,226v-226h226v226z" fill="none"></path><g><circle cx="256" cy="66" transform="scale(0.44141,0.44141)" r="40" fill="#3498db"></circle><circle cx="396" cy="276" transform="scale(0.44141,0.44141)" r="40" fill="#3498db"></circle><circle cx="396" cy="136" transform="scale(0.44141,0.44141)" r="40" fill="#3498db"></circle><circle cx="116" cy="336" transform="scale(0.44141,0.44141)" r="40" fill="#3498db"></circle><circle cx="116" cy="196" transform="scale(0.44141,0.44141)" r="40" fill="#3498db"></circle><path d="M214.52344,218.9375h-203.04687c-2.43789,0 -4.41406,-1.97662 -4.41406,-4.41406c0,-2.43745 1.97618,-4.41406 4.41406,-4.41406h203.04688c2.43745,0 4.41406,1.97662 4.41406,4.41406c0,2.43745 -1.97662,4.41406 -4.41406,4.41406z" fill="#020202"></path><path d="M113,218.9375c-2.43789,0 -4.41406,-1.97662 -4.41406,-4.41406v-167.73437c0,-2.43789 1.97618,-4.41406 4.41406,-4.41406c2.43745,0 4.41406,1.97618 4.41406,4.41406v167.73438c0,2.43745 -1.97662,4.41406 -4.41406,4.41406z" fill="#020202"></path><path d="M113,51.20313c-12.16957,0 -22.07031,-9.90074 -22.07031,-22.07031c0,-12.16957 9.90074,-22.07031 22.07031,-22.07031c12.16957,0 22.07031,9.90074 22.07031,22.07031c0,12.16957 -9.90074,22.07031 -22.07031,22.07031zM113,15.89063c-7.30174,0 -13.24219,5.94045 -13.24219,13.24219c0,7.30174 5.94045,13.24219 13.24219,13.24219c7.30174,0 13.24219,-5.94045 13.24219,-13.24219c0,-7.30174 -5.94045,-13.24219 -13.24219,-13.24219z" fill="#020202"></path><path d="M174.79688,82.10156c-12.16957,0 -22.07031,-9.90074 -22.07031,-22.07031c0,-12.16957 9.90074,-22.07031 22.07031,-22.07031c12.16957,0 22.07031,9.90074 22.07031,22.07031c0,12.16957 -9.90074,22.07031 -22.07031,22.07031zM174.79688,46.78906c-7.30174,0 -13.24219,5.94045 -13.24219,13.24219c0,7.30174 5.94045,13.24219 13.24219,13.24219c7.30174,0 13.24219,-5.94045 13.24219,-13.24219c0,-7.30174 -5.94045,-13.24219 -13.24219,-13.24219z" fill="#020202"></path><path d="M113.00353,99.7587c-1.61908,0 -3.17812,-0.89385 -3.95147,-2.44098c-1.09027,-2.18055 -0.20658,-4.83207 1.97397,-5.92235l44.14063,-22.07031c2.17922,-1.09071 4.83163,-0.20658 5.92191,1.97397c1.09027,2.18055 0.20658,4.83207 -1.97441,5.92235l-44.14062,22.07031c-0.63298,0.31693 -1.30656,0.46701 -1.97,0.46701z" fill="#020202"></path><path d="M51.20313,108.58594c-12.16957,0 -22.07031,-9.90074 -22.07031,-22.07031c0,-12.16957 9.90074,-22.07031 22.07031,-22.07031c12.16957,0 22.07031,9.90074 22.07031,22.07031c0,12.16957 -9.90074,22.07031 -22.07031,22.07031zM51.20313,73.27344c-7.30174,0 -13.24219,5.94045 -13.24219,13.24219c0,7.30174 5.94045,13.24219 13.24219,13.24219c7.30174,0 13.24219,-5.94045 13.24219,-13.24219c0,-7.30174 -5.94045,-13.24219 -13.24219,-13.24219z" fill="#020202"></path><path d="M112.99647,126.24307c-0.66343,0 -1.33702,-0.15008 -1.97044,-0.46701l-44.14062,-22.07031c-2.18055,-1.09027 -3.06424,-3.7418 -1.97397,-5.92235c1.09027,-2.18055 3.74136,-3.06424 5.92235,-1.97397l44.14062,22.07031c2.18055,1.09027 3.06424,3.7418 1.97441,5.92191c-0.77423,1.54757 -2.33327,2.44142 -3.95235,2.44142z" fill="#020202"></path><path d="M174.79688,143.89844c-12.16957,0 -22.07031,-9.90074 -22.07031,-22.07031c0,-12.16957 9.90074,-22.07031 22.07031,-22.07031c12.16957,0 22.07031,9.90074 22.07031,22.07031c0,12.16957 -9.90074,22.07031 -22.07031,22.07031zM174.79688,108.58594c-7.30174,0 -13.24219,5.94045 -13.24219,13.24219c0,7.30174 5.94045,13.24219 13.24219,13.24219c7.30174,0 13.24219,-5.94045 13.24219,-13.24219c0,-7.30174 -5.94045,-13.24219 -13.24219,-13.24219z" fill="#020202"></path><path d="M113.00353,161.55557c-1.61908,0 -3.17812,-0.89385 -3.95147,-2.44098c-1.09027,-2.18011 -0.20658,-4.83163 1.97397,-5.92191l44.14063,-22.07031c2.17922,-1.09071 4.83163,-0.20658 5.92191,1.97441c1.09027,2.18011 0.20658,4.83163 -1.97441,5.92191l-44.14062,22.07031c-0.63298,0.31649 -1.30656,0.46657 -1.97,0.46657z" fill="#020202"></path><path d="M51.20313,170.38281c-12.16957,0 -22.07031,-9.90074 -22.07031,-22.07031c0,-12.16957 9.90074,-22.07031 22.07031,-22.07031c12.16957,0 22.07031,9.90074 22.07031,22.07031c0,12.16957 -9.90074,22.07031 -22.07031,22.07031zM51.20313,135.07031c-7.30174,0 -13.24219,5.94045 -13.24219,13.24219c0,7.30174 5.94045,13.24219 13.24219,13.24219c7.30174,0 13.24219,-5.94045 13.24219,-13.24219c0,-7.30174 -5.94045,-13.24219 -13.24219,-13.24219z" fill="#020202"></path><path d="M112.99647,188.03995c-0.66343,0 -1.33702,-0.15008 -1.97044,-0.46701l-44.14062,-22.07031c-2.18055,-1.09027 -3.06424,-3.7418 -1.97397,-5.92191c1.09027,-2.18099 3.74136,-3.06424 5.92235,-1.97441l44.14062,22.07031c2.18055,1.09027 3.06424,3.7418 1.97441,5.92191c-0.77423,1.54757 -2.33327,2.44142 -3.95235,2.44142z" fill="#020202"></path></g></g></svg>